<?xml version="1.0" encoding="UTF-8" standalone="no"?>
<svg
   enable-background="new 0 0 64 64"
   height="52.111"
   id="Layer_1"
   version="1.1"
   viewBox="0 0 45.458 52.111"
   width="45.458"
   xml:space="preserve"
   sodipodi:docname="nationality_flag.svg"
   inkscape:version="1.3-beta (cedbd6c6ff, 2023-05-28)"
   xmlns:inkscape="http://www.inkscape.org/namespaces/inkscape"
   xmlns:sodipodi="http://sodipodi.sourceforge.net/DTD/sodipodi-0.dtd"
   xmlns="http://www.w3.org/2000/svg"
   xmlns:svg="http://www.w3.org/2000/svg"><defs
     id="defs1" /><sodipodi:namedview
     id="namedview1"
     pagecolor="#ffffff"
     bordercolor="#666666"
     borderopacity="1.0"
     inkscape:showpageshadow="2"
     inkscape:pageopacity="0.0"
     inkscape:pagecheckerboard="0"
     inkscape:deskcolor="#d1d1d1"
     inkscape:zoom="8.0293897"
     inkscape:cx="46.45434"
     inkscape:cy="26.091647"
     inkscape:window-width="1366"
     inkscape:window-height="705"
     inkscape:window-x="1432"
     inkscape:window-y="-8"
     inkscape:window-maximized="1"
     inkscape:current-layer="Layer_1" /><path
     d="M 44.956,6.665 C 44.618,6.329 44.22,6.16 43.76,6.16 c -0.229,0 -0.712,0.188 -1.446,0.559 -0.735,0.372 -1.515,0.786 -2.336,1.248 -0.823,0.459 -1.797,0.875 -2.921,1.247 -1.123,0.371 -2.163,0.559 -3.12,0.559 -0.884,0 -1.664,-0.168 -2.336,-0.505 C 29.372,8.224 27.433,7.445 25.787,6.931 24.141,6.418 22.371,6.16 20.476,6.16 c -3.272,0 -6.999,1.064 -11.177,3.188 -0.862,0.43 -1.48,0.763 -1.88,1.007 L 7.022,7.444 C 7.919,6.665 8.498,5.53 8.498,4.249 8.498,1.902 6.596,0 4.249,0 1.902,0 0,1.902 0,4.249 0,5.78 0.818,7.111 2.032,7.859 l 5.74,42.09 c 0.171,1.253 1.243,2.162 2.474,2.162 0.112,0 0.226,-0.007 0.341,-0.022 1.368,-0.188 2.326,-1.447 2.139,-2.815 L 10.419,32.357 c 4.186,-2.077 7.807,-3.124 10.853,-3.124 1.293,0 2.554,0.193 3.783,0.583 1.23,0.391 2.253,0.815 3.067,1.274 0.814,0.46 1.775,0.886 2.88,1.274 1.107,0.39 2.2,0.585 3.279,0.585 2.726,0 5.991,-1.027 9.796,-3.08 0.478,-0.248 0.828,-0.492 1.049,-0.731 0.221,-0.239 0.332,-0.579 0.332,-1.021 V 7.86 c 0,-0.459 -0.167,-0.858 -0.502,-1.195 z"
     id="path1"
     style="fill:#9fa6b2;fill-opacity:1" /></svg>
