<?xml version="1.0" encoding="UTF-8" standalone="no"?>
<svg
   height="54.040741"
   id="Layer_1"
   version="1.1"
   viewBox="0 0 63.799999 54.040741"
   width="63.799999"
   xml:space="preserve"
   sodipodi:docname="t_short.svg"
   inkscape:version="1.3-beta (cedbd6c6ff, 2023-05-28)"
   xmlns:inkscape="http://www.inkscape.org/namespaces/inkscape"
   xmlns:sodipodi="http://sodipodi.sourceforge.net/DTD/sodipodi-0.dtd"
   xmlns="http://www.w3.org/2000/svg"
   xmlns:svg="http://www.w3.org/2000/svg"><defs
     id="defs1" /><sodipodi:namedview
     id="namedview1"
     pagecolor="#ffffff"
     bordercolor="#666666"
     borderopacity="1.0"
     inkscape:showpageshadow="2"
     inkscape:pageopacity="0.0"
     inkscape:pagecheckerboard="0"
     inkscape:deskcolor="#d1d1d1"
     inkscape:zoom="5.7210032"
     inkscape:cx="-14.333151"
     inkscape:cy="26.830959"
     inkscape:window-width="1366"
     inkscape:window-height="705"
     inkscape:window-x="1432"
     inkscape:window-y="-8"
     inkscape:window-maximized="1"
     inkscape:current-layer="Layer_1" /><style
     type="text/css"
     id="style1">&#10;	.st0{fill:#1C2B36;}&#10;</style><path
     class="st0"
     d="m 55.7,5.8395062 c -1.1,-1.4 -9.4,-2.5 -13.7,-5.80000003 0,0 -0.6,-0.2 -1,0.3 -2.1,3.10000003 -4.2,5.70000003 -9.1,5.70000003 -4.9,0 -7,-2.6 -9.1,-5.70000003 -0.3,-0.5 -1,-0.3 -1,-0.3 C 17.5,3.2395062 9.2,4.4395062 8.1,5.8395062 c -2.4,3.1 -5.8,9.8999998 -8.1,14.2999998 2.1,3.5 6.9,5.6 10.3,5.9 1.1,-1.1 2.8,-4.3 3.8,-4.3 0.5,0 1.5,3.4 1.5,10.7 0,5.5 -1.8,16.6 -1.8,20.1 4.3,1.6 13.1,1.5 18.1,1.5 5,0 13.8,0.1 18.1,-1.5 0,-3.5 -1.8,-14.6 -1.8,-20.1 0,-7.3 1,-10.7 1.5,-10.7 1,0 2.7,3.2 3.8,4.3 3.3,-0.3 8.1,-2.5 10.3,-5.9 -2.3,-4.4 -5.7,-11.1999998 -8.1,-14.2999998 z"
     id="path1"
     style="fill:#454545;fill-opacity:1" /></svg>
