<?xml version="1.0" encoding="UTF-8" standalone="no"?>
<svg
   enable-background="new 0 0 50 50"
   height="48"
   id="Layer_1"
   version="1.1"
   viewBox="0 0 42.247589 48"
   width="42.247589"
   xml:space="preserve"
   sodipodi:docname="team_football.svg"
   inkscape:version="1.3-beta (cedbd6c6ff, 2023-05-28)"
   xmlns:inkscape="http://www.inkscape.org/namespaces/inkscape"
   xmlns:sodipodi="http://sodipodi.sourceforge.net/DTD/sodipodi-0.dtd"
   xmlns="http://www.w3.org/2000/svg"
   xmlns:svg="http://www.w3.org/2000/svg"><defs
     id="defs3" /><sodipodi:namedview
     id="namedview3"
     pagecolor="#ffffff"
     bordercolor="#666666"
     borderopacity="1.0"
     inkscape:showpageshadow="2"
     inkscape:pageopacity="0.0"
     inkscape:pagecheckerboard="0"
     inkscape:deskcolor="#d1d1d1"
     inkscape:zoom="8.6395462"
     inkscape:cx="21.123795"
     inkscape:cy="24.017465"
     inkscape:window-width="1366"
     inkscape:window-height="705"
     inkscape:window-x="1432"
     inkscape:window-y="-8"
     inkscape:window-maximized="1"
     inkscape:current-layer="Layer_1" /><g
     id="g3"
     transform="translate(-4.7175738,-1)"
     style="fill:#9fa6b2;fill-opacity:1"><g
       id="g1"
       style="fill:#9fa6b2;stroke:none;fill-opacity:1"><path
         d="M 37,44.502 C 37,46.985 34.985,49 32.499,49 30.015,49 28,46.985 28,44.502 28,42.015 30.015,40 32.499,40 34.985,40 37,42.015 37,44.502 Z"
         fill="none"
         stroke="#000000"
         stroke-linecap="round"
         stroke-linejoin="round"
         stroke-miterlimit="10"
         stroke-width="2.1081"
         id="path1"
         style="fill:#9fa6b2;stroke:none;fill-opacity:1" /></g><g
       id="g2"
       style="fill:#9fa6b2;stroke:none;fill-opacity:1"><path
         d="M 35,5.501 C 35,7.986 32.985,10 30.5,10 28.015,10 26,7.986 26,5.501 26,3.014 28.015,1 30.5,1 32.985,1 35,3.014 35,5.501 Z"
         fill="none"
         stroke="#000000"
         stroke-linecap="round"
         stroke-linejoin="round"
         stroke-miterlimit="10"
         stroke-width="2"
         id="path2"
         style="fill:#9fa6b2;stroke:none;fill-opacity:1" /></g><path
       d="m 31.324,19.137 c 0,0 -11.109,26.648 -11.557,27.71 -0.448,1.062 -1.159,2.399 -3.07,1.815 -1.44,-0.44 -1.738,-1.759 -1.291,-3.269 0.447,-1.51 7.101,-18.398 6.564,-18.475 -0.371,-0.053 -4.55,7.059 -5.451,8.438 -0.625,0.955 -1.572,2.1 -3.178,1.396 C 12.026,36.178 11.742,34.697 12.273,33.547 14.396,28.944 21,15 21,15 21,15 9.735,14.96 7,15 4.124,15.042 3.794,12.552 7,12 c 3.717,-0.638 14.877,-2 14.877,-2 0,0 1.814,-0.177 3.242,0.555 1.345,0.69 5.488,2.931 7.394,4.028 1.556,0.897 5.872,3.995 5.872,3.995 l 6.053,-4.626 c 0,0 1.323,-0.947 2.118,-0.179 0.914,0.885 0.151,1.957 -0.861,2.979 -1.015,1.026 -5.349,4.048 -6.077,4.693 -0.324,0.287 -1.103,0.858 -2.496,0.303 -1.395,-0.557 -5.798,-2.611 -5.798,-2.611 z"
       fill="none"
       stroke="#000000"
       stroke-linecap="round"
       stroke-linejoin="round"
       stroke-miterlimit="10"
       stroke-width="2"
       id="path3"
       style="fill:#9fa6b2;stroke:none;fill-opacity:1" /></g></svg>
